<svg xmlns="http://www.w3.org/2000/svg" xmlns:xlink="http://www.w3.org/1999/xlink" version="1.1" width="500" height="500" viewBox="0 0 1000 1000" xml:space="preserve">
<desc>Created with Fabric.js 3.5.0</desc>
<g transform="matrix(1.1364 0 0 1.1364 500.0145 500.0029)" id="156594">
<g style="" vector-effect="non-scaling-stroke">
		<g transform="matrix(8.3316 0 0 8.3316 -274.5795 10.52)" id="path3163">
<path style="stroke: rgb(237,255,73); stroke-width: 1.3; stroke-dasharray: none; stroke-linecap: butt; stroke-dashoffset: 0; stroke-linejoin: miter; stroke-miterlimit: 4; is-custom-font: none; font-file-url: none; fill: rgb(18,172,40); fill-rule: nonzero; opacity: 1;" transform=" translate(-524.5136, -608.9069)" d="m 511.25531 601.45702 l 26.51651 0 l 0 14.89975 l -21.46575 0 l 5.55584 -6.06091 z" stroke-linecap="round"/>
</g>
		<g transform="matrix(8.3316 0 0 8.3316 268.0696 10.52)" id="path3165">
<path style="stroke: rgb(237,255,73); stroke-width: 1.3; stroke-dasharray: none; stroke-linecap: butt; stroke-dashoffset: 0; stroke-linejoin: miter; stroke-miterlimit: 4; is-custom-font: none; font-file-url: none; fill: rgb(18,172,40); fill-rule: nonzero; opacity: 1;" transform=" translate(-589.6448, -608.9069)" d="m 603.68427 601.45702 l -28.07901 0 l 0 14.89975 l 23.02825 0 l -5.55584 -6.06091 z" stroke-linecap="round"/>
</g>
		<g transform="matrix(8.3316 0 0 8.3316 -7.3649 -11.5725)" id="path3161">
<path style="stroke: rgb(237,255,73); stroke-width: 1.3; stroke-dasharray: none; stroke-linecap: butt; stroke-dashoffset: 0; stroke-linejoin: miter; stroke-miterlimit: 4; is-custom-font: none; font-file-url: none; fill: rgb(18,172,40); fill-rule: nonzero; opacity: 1;" transform=" translate(-556.5859, -606.2552)" d="m 532.72105 598.93164 l 47.98225 0 l 0 14.64721 l -48.23478 0 z" stroke-linecap="round"/>
</g>
		<g transform="matrix(8.3316 0 0 8.3316 -187.2163 60.1703)" id="path4078">
<path style="stroke: rgb(237,255,73); stroke-width: 1; stroke-dasharray: none; stroke-linecap: butt; stroke-dashoffset: 0; stroke-linejoin: miter; stroke-miterlimit: 4; is-custom-font: none; font-file-url: none; fill: rgb(18,172,40); fill-rule: nonzero; opacity: 1;" transform=" translate(-534.9993, -614.8661)" d="m 532.09301 613.74112 l 5.75 2.3125 l 0.0625 -2.375 z" stroke-linecap="round"/>
</g>
		<g transform="matrix(8.3316 0 0 8.3316 173.1267 60.1703)" id="path4080">
<path style="stroke: rgb(237,255,73); stroke-width: 1; stroke-dasharray: none; stroke-linecap: butt; stroke-dashoffset: 0; stroke-linejoin: miter; stroke-miterlimit: 4; is-custom-font: none; font-file-url: none; fill: rgb(18,172,40); fill-rule: nonzero; opacity: 1;" transform=" translate(-578.2493, -614.8661)" d="m 581.15551 613.74112 l -5.75 2.3125 l -0.0625 -2.375 z" stroke-linecap="round"/>
</g>
</g>
</g>
</svg>